<svg width="148" height="90" viewBox="0 0 148 90" fill="none" xmlns="http://www.w3.org/2000/svg">
<g clip-path="url(#clip0_3208_16543)">
<path d="M-0.00383497 70.1094C2.50599 70.1134 5.01581 70.1014 7.52563 70.1293C11.0139 70.1653 13.4044 73.6019 12.239 76.863C11.8969 77.8209 11.2446 78.5234 10.3855 79.1102C10.5247 79.194 10.6202 79.2579 10.7236 79.3137C12.6646 80.3914 13.5556 82.2036 13.2533 84.4468C12.9868 86.4106 11.3679 88.2068 9.43485 88.6578C9.04505 88.7496 8.63537 88.7975 8.23363 88.7975C5.58858 88.8095 2.94352 88.8055 0.29448 88.8055C0.195042 88.8055 0.0916258 88.7895 -0.0078125 88.7815C-0.0078125 82.5588 -0.0078125 76.3361 -0.0078125 70.1094H-0.00383497ZM1.90936 87.0532C2.12812 87.0532 2.29518 87.0532 2.45826 87.0532C4.27599 87.0532 6.0977 87.0532 7.91543 87.0532C8.16602 87.0532 8.42456 87.0532 8.67116 87.0093C10.473 86.69 11.5907 85.1333 11.4236 83.1815C11.2844 81.525 9.81669 80.1799 8.11431 80.1679C6.17725 80.1559 4.24019 80.1679 2.30313 80.1679C2.17585 80.1679 2.04857 80.1919 1.90936 80.2038V87.0532ZM1.92129 78.3797C2.02868 78.3917 2.09232 78.4077 2.15597 78.4077C3.95779 78.4077 5.75563 78.4157 7.55745 78.4037C7.85577 78.4037 8.16204 78.3438 8.44842 78.256C9.96784 77.785 10.8429 76.2922 10.6122 74.5838C10.4133 73.111 9.10471 71.9335 7.58132 71.9095C5.98235 71.8856 4.38338 71.9016 2.78442 71.9016C2.50201 71.9016 2.22358 71.9016 1.91731 71.9016V78.3797H1.92129Z" fill="white"/>
<path d="M72.0984 90.0021C68.8368 89.5072 67.1344 87.272 66.1201 84.4141C64.7559 80.5663 64.9428 76.7464 66.7566 73.0543C67.2816 71.9846 68.0135 71.0586 68.9402 70.2922C71.0006 68.5878 73.6257 68.5519 75.71 70.2283C77.48 71.6533 78.4585 73.5772 78.9994 75.7326C79.8625 79.1772 79.6278 82.5421 78.0527 85.7512C77.2294 87.4276 76.068 88.8167 74.298 89.5551C73.7928 89.7666 73.236 89.8545 72.703 89.9981H72.0944L72.0984 90.0021ZM77.7902 79.5125C77.838 79.5045 77.8817 79.4966 77.9294 79.4886C77.7027 78.1953 77.5595 76.8821 77.2294 75.6208C76.8038 73.9963 76.0162 72.5394 74.64 71.4936C73.1922 70.392 71.458 70.4239 70.0221 71.5455C69.2107 72.1842 68.6061 72.9944 68.1646 73.9165C66.8202 76.7265 66.6253 79.6562 67.3094 82.6618C67.6992 84.3702 68.3993 85.9308 69.7039 87.1482C71.3108 88.649 73.3672 88.6849 74.9662 87.1762C75.5429 86.6293 76.0441 85.9588 76.4339 85.2642C77.4362 83.488 77.7823 81.5362 77.7862 79.5125H77.7902Z" fill="white"/>
<path d="M103.134 89.9977C100.048 89.5427 98.4129 87.4432 97.2912 84.7809C97.0446 84.1941 96.8537 83.5714 96.7145 82.9488C95.9747 79.6159 96.1656 76.3548 97.7089 73.2734C98.1862 72.3234 98.8425 71.4174 99.5942 70.671C101.865 68.3998 104.94 68.4277 107.259 70.659C108.818 72.1598 109.685 74.0478 110.143 76.1313C110.859 79.3804 110.616 82.5496 109.18 85.5712C108.842 86.2817 108.393 86.9522 107.907 87.5709C106.849 88.932 105.453 89.7463 103.739 89.9937H103.13L103.134 89.9977ZM108.929 79.4642C108.782 78.4144 108.695 77.3487 108.472 76.3149C108.106 74.6425 107.422 73.1058 106.169 71.8923C104.518 70.2958 102.442 70.2718 100.744 71.8205C99.9681 72.527 99.4033 73.3852 99.0095 74.3471C97.6373 77.704 97.6174 81.0887 98.9499 84.4615C99.4272 85.671 100.139 86.7367 101.209 87.515C102.609 88.5328 104.216 88.5328 105.62 87.515C106.428 86.9283 107.02 86.1579 107.49 85.2838C108.464 83.4716 108.83 81.5158 108.929 79.4642Z" fill="white"/>
<path d="M81.0645 54.5959C81.8958 53.9453 82.7112 53.3745 83.4471 52.7239C87.0428 49.5427 89.302 45.5831 90.1771 40.8453C90.7498 37.7399 90.6106 34.6585 89.7515 31.6249C88.3116 26.5318 85.3404 22.5722 80.9214 19.6944C79.915 19.0398 79.5491 17.2316 80.2253 16.2417C80.6708 15.5871 81.5259 15.4075 82.2777 15.8346C84.0039 16.8125 85.5671 18.01 86.9871 19.395C90.8533 23.167 93.3153 27.7173 94.1705 33.0499C95.328 40.2785 93.6495 46.8445 89.1071 52.5962C85.7381 56.8591 81.3589 59.6451 76.1205 61.0661C75.2613 61.3016 74.6408 61.122 74.2232 60.5353C73.8175 59.9645 73.8612 59.2979 74.3743 58.5675C76.4944 55.5459 77.7513 52.1891 78.0814 48.5209C78.5149 43.6832 77.4251 39.1928 74.7403 35.1294C72.1986 31.2817 70.6076 27.0746 69.9036 22.5164C69.5456 20.2133 69.47 17.8982 69.645 15.5951C70.0468 10.2266 71.7054 5.26117 74.6647 0.750788C75.321 -0.251075 76.6177 -0.235109 77.266 0.770745C77.2859 0.798686 77.2978 0.830618 77.3177 0.858558C78.1331 1.90433 78.1172 2.86228 77.3774 4.03179C75.4522 7.07729 74.3027 10.4541 73.8294 14.0265C72.9225 20.8559 74.3187 27.1904 78.1132 32.9581C80.2969 36.275 81.6254 39.9112 82.0589 43.8508C82.4249 47.1917 82.1425 50.4927 81.156 53.7178C81.0924 53.9254 81.0407 54.1409 80.9929 54.3524C80.985 54.3804 81.0128 54.4123 81.0765 54.6039L81.0645 54.5959Z" fill="white"/>
<path d="M73.5599 46.4553C73.5241 49.6326 72.5417 52.5424 71.1336 55.3244C70.5569 56.466 69.8926 57.5676 69.2284 58.6653C68.7073 59.5274 67.9436 59.727 67.0646 59.26C61.7705 56.45 57.8526 52.3428 55.4741 46.8066C53.9785 43.322 53.3222 39.6578 53.5529 35.8819C53.9865 28.9048 56.8423 23.0812 62.0847 18.4511C62.6257 17.9761 63.2064 17.7725 63.8865 18.0918C64.5468 18.4032 64.7417 18.974 64.7855 19.6645C64.9843 22.7539 65.6287 25.7635 66.8697 28.5894C68.1584 31.5232 69.6221 34.3771 71.0143 37.2629C72.0365 39.3824 72.9434 41.5418 73.3093 43.8848C73.4406 44.731 73.4804 45.5972 73.5599 46.4513V46.4553ZM61.5517 25.1727C61.4881 25.1648 61.4284 25.1568 61.3648 25.1488C58.0992 29.8468 56.8582 35.0517 57.8447 40.7076C58.9186 46.8585 62.2359 51.5405 67.5777 54.9452C67.9078 54.0791 68.2221 53.3207 68.4885 52.5463C69.7176 48.95 69.9244 45.3218 68.7869 41.6616C67.9993 39.131 66.7265 36.8239 65.4935 34.5008C64.2525 32.1618 63.0075 29.8268 62.1921 27.2922C61.9654 26.5897 61.7625 25.8832 61.5517 25.1767V25.1727Z" fill="white"/>
<path d="M131.66 74.4152C131.131 74.7265 130.61 75.0259 130.073 75.3412C130.005 75.2614 129.946 75.2055 129.902 75.1377C128.263 72.4953 125.825 71.4336 122.818 71.6691C119.143 71.9604 116.494 74.4232 115.837 78.0435C114.903 83.2005 118.805 87.5991 124.039 87.3157C125.984 87.2119 127.758 86.705 129.15 85.2481C130.089 84.2662 130.65 83.1127 130.765 81.6917H123.426V79.9674H132.682C132.766 81.2885 132.694 82.5938 132.185 83.8311C130.976 86.7649 128.748 88.4493 125.666 88.9642C123.307 89.3593 120.992 89.1717 118.84 88.0022C115.352 86.1143 113.427 82.3064 113.92 78.3189C114.465 73.9243 117.44 70.6872 121.784 69.9767C125.686 69.338 128.927 70.5514 131.31 73.8125C131.397 73.9362 131.473 74.0679 131.553 74.1997C131.584 74.2555 131.612 74.3154 131.66 74.4152Z" fill="white"/>
<path d="M61.4384 88.8049C60.9571 88.8049 60.4997 88.8408 60.0542 88.7849C59.8832 88.765 59.7002 88.5614 59.5849 88.3978C56.367 83.6878 53.1532 78.9778 49.9394 74.2639C49.828 74.1003 49.7126 73.9366 49.5058 73.6372V88.769H47.6562V70.1207C48.1296 70.1207 48.5989 70.0848 49.0603 70.1407C49.2274 70.1607 49.4103 70.3722 49.5217 70.5359C52.7395 75.2458 55.9534 79.9598 59.1672 84.6697C59.2667 84.8174 59.378 84.9571 59.5729 85.2165V70.1607H61.4384V88.8009V88.8049Z" fill="white"/>
<path d="M45.2313 88.8059C44.6108 88.8059 44.0738 88.8298 43.5409 88.7899C43.3977 88.7779 43.2067 88.5943 43.1471 88.4466C42.6738 87.2372 42.2243 86.0198 41.7669 84.8024C41.6953 84.6148 41.6197 84.4272 41.5362 84.2197C39.9094 84.2197 38.2905 84.2197 36.6756 84.2197C35.4784 84.2197 34.2812 84.2276 33.0879 84.2117C32.8015 84.2077 32.6742 84.3075 32.5788 84.5669C32.1094 85.8522 31.6162 87.1255 31.1548 88.4107C31.0435 88.7141 30.8923 88.8298 30.5701 88.8099C30.0849 88.7819 29.5996 88.8019 29.0547 88.8019C29.1342 88.5584 29.1899 88.3708 29.2615 88.1872C31.5048 82.3277 33.7561 76.4682 35.9875 70.6047C36.1347 70.2175 36.3177 70.1018 36.7154 70.1098C38.0877 70.1337 38.0916 70.1138 38.5928 71.423C40.7486 77.047 42.9005 82.671 45.0523 88.295C45.104 88.4347 45.1557 88.5744 45.2393 88.8059H45.2313ZM40.8759 82.4474C39.6309 79.1345 38.4059 75.8735 37.1291 72.4807C35.8483 75.8894 34.6272 79.1465 33.3862 82.4474H40.8759Z" fill="white"/>
<path d="M141.27 88.7842H139.421C139.421 88.5807 139.421 88.3851 139.421 88.1895C139.421 85.9742 139.429 83.7589 139.413 81.5477C139.413 81.2802 139.329 80.9769 139.19 80.7494C137.141 77.3726 135.081 74.0038 133.025 70.6349C132.937 70.4952 132.862 70.3476 132.734 70.124C133.419 70.124 134.035 70.1001 134.644 70.144C134.791 70.156 134.954 70.3675 135.053 70.5272C136.724 73.2613 138.386 76.0035 140.053 78.7456C140.148 78.9013 140.244 79.057 140.371 79.2645C140.495 79.0729 140.594 78.9292 140.685 78.7776C142.344 76.0354 144.007 73.2933 145.649 70.5391C145.836 70.2238 146.039 70.0881 146.405 70.1121C146.902 70.144 147.4 70.12 148 70.12C147.853 70.3755 147.758 70.5431 147.658 70.7108C145.61 74.0676 143.557 77.4205 141.521 80.7853C141.374 81.0288 141.286 81.3481 141.286 81.6315C141.266 83.8108 141.274 85.9942 141.274 88.1735C141.274 88.3571 141.274 88.5407 141.274 88.7842H141.27Z" fill="white"/>
<path d="M85.3686 87.0642H93.8606V88.7805H83.5469V70.1562H85.3686V87.0602V87.0642Z" fill="white"/>
<path d="M27.2704 70.1562V71.8726H16.5391V70.1562H27.2704Z" fill="white"/>
<path d="M16.5312 88.778V87.1016H27.382V88.778H16.5312Z" fill="white"/>
<path d="M27.3288 78.6328V80.3252H16.6094V78.6328H27.3288Z" fill="white"/>
</g>
<defs>
<clipPath id="clip0_3208_16543">
<rect width="148" height="90" fill="white"/>
</clipPath>
</defs>
</svg>
